<svg width="21" height="15" viewBox="0 0 21 15" fill="none" xmlns="http://www.w3.org/2000/svg">
<path d="M1.26121 1.09184L1.50997 0.384291H1.50997L1.26121 1.09184ZM1.24876 0.292455C0.857992 0.15507 0.429841 0.360476 0.292455 0.751242C0.15507 1.14201 0.360476 1.57016 0.751242 1.70754L1.24876 0.292455ZM3.58584 2.32298L4.20507 1.89983V1.89983L3.58584 2.32298ZM4.88772 12.5862L4.34345 13.1022H4.34345L4.88772 12.5862ZM19.6578 7.88275L20.3923 8.03415L20.3933 8.02956L19.6578 7.88275ZM19.158 10.3075L19.8926 10.4589L19.158 10.3075ZM19.7345 4.69708L19.1401 5.15439L19.7345 4.69708ZM18.1336 13.0504L17.6598 12.469L18.1336 13.0504ZM4.70808 7.76V5.03836H3.20808V7.76H4.70808ZM1.50997 0.384291L1.24876 0.292455L0.751242 1.70754L1.01245 1.79938L1.50997 0.384291ZM9.93748 14.25H15.2404V12.75H9.93748V14.25ZM4.70808 5.03836C4.70808 4.3312 4.7091 3.7411 4.65719 3.26157C4.60346 2.76519 4.48705 2.31247 4.20507 1.89983L2.96661 2.74613C3.05687 2.87822 3.12657 3.05964 3.1659 3.42299C3.20706 3.8032 3.20808 4.29841 3.20808 5.03836H4.70808ZM1.01245 1.79938C1.68006 2.0341 2.11881 2.18965 2.44166 2.34806C2.74488 2.49684 2.87855 2.61727 2.96661 2.74613L4.20507 1.89983C3.92089 1.48397 3.54304 1.21763 3.10241 1.00143C2.68139 0.794848 2.14395 0.607187 1.50997 0.384291L1.01245 1.79938ZM3.20808 7.76C3.20808 9.21253 3.22171 10.2599 3.35876 11.0601C3.50508 11.9144 3.79722 12.5261 4.34345 13.1022L5.43198 12.0702C5.11182 11.7325 4.93913 11.4018 4.83723 10.8069C4.72607 10.1578 4.70808 9.24904 4.70808 7.76H3.20808ZM9.93748 12.75C8.52069 12.75 7.53763 12.7482 6.79696 12.6432C6.08215 12.5418 5.70452 12.3576 5.43198 12.0702L4.34345 13.1022C4.93731 13.7286 5.69012 14.0013 6.58636 14.1283C7.45674 14.2518 8.56535 14.25 9.93748 14.25V12.75ZM3.95808 4.87H16.0888V3.37H3.95808V4.87ZM18.9232 7.73135L18.4235 10.1561L19.8926 10.4589L20.3923 8.03415L18.9232 7.73135ZM16.0888 4.87C16.9452 4.87 17.6989 4.871 18.2937 4.93749C18.5893 4.97053 18.8105 5.01643 18.9659 5.07105C19.1273 5.12776 19.153 5.17127 19.1401 5.15439L20.329 4.23978C20.094 3.93436 19.7636 3.76145 19.4632 3.65587C19.1567 3.54818 18.8101 3.48587 18.4604 3.44678C17.7646 3.369 16.9174 3.37 16.0888 3.37V4.87ZM20.3933 8.02956C20.5625 7.18167 20.7062 6.47024 20.7414 5.90038C20.7775 5.31418 20.7108 4.73617 20.329 4.23978L19.1401 5.15439C19.2021 5.23508 19.2706 5.38037 19.2442 5.80797C19.2168 6.25191 19.1002 6.84478 18.9223 7.73595L20.3933 8.02956ZM15.2404 14.25C16.0021 14.25 16.6413 14.2513 17.1566 14.1882C17.6923 14.1227 18.1809 13.9794 18.6074 13.6318L17.6598 12.469C17.5346 12.571 17.3571 12.6525 16.9744 12.6994C16.5712 12.7487 16.0397 12.75 15.2404 12.75V14.25ZM18.4235 10.1561C18.2621 10.9389 18.1535 11.4593 18.0238 11.8442C17.9007 12.2095 17.785 12.367 17.6598 12.469L18.6074 13.6318C19.0339 13.2842 19.2729 12.8346 19.4453 12.3232C19.6111 11.8312 19.7388 11.2049 19.8926 10.4589L18.4235 10.1561Z" fill="#2D2D2B"/>
</svg>
